
<svg width="67" height="80" viewBox="0 0 67 80" fill="none" xmlns="http://www.w3.org/2000/svg">
<rect x="12" y="34" width="32" height="32" rx="16" fill="#0081C7"/>
<path d="M66.2629 17.8138C59.4659 9.73352 50.2853 4.01241 40.0368 1.47048C29.7884 -1.07145 18.9984 -0.303697 9.21311 3.6637L28 50L66.2629 17.8138Z" fill="url(#paint0_linear_3761_22419)"/>
<g filter="url(#filter0_d_3761_22419)">
<rect x="12" y="34" width="32" height="32" rx="16" fill="#0081C7" shape-rendering="crispEdges"/>
<rect x="12.5" y="34.5" width="31" height="31" rx="15.5" stroke="white" shape-rendering="crispEdges"/>
<path fill-rule="evenodd" clip-rule="evenodd" d="M28 41C24.6061 41 22.9087 41 21.8548 42.0548C20.8972 43.0115 20.809 42.6974 20.8 45.5H19.9C19.6613 45.5 19.4324 45.5948 19.2636 45.7636C19.0948 45.9324 19 46.1613 19 46.4V47.3C19 47.4397 19.0325 47.5775 19.095 47.7025C19.1575 47.8275 19.3382 49.0162 19.45 49.1H20.8C20.809 51.9026 20.8972 55.1885 21.8548 56.1452C22.0726 56.3639 22.3174 56.5367 22.6 56.6735V58.1C22.6 58.3387 22.6948 58.5676 22.8636 58.7364C23.0324 58.9052 23.2613 59 23.5 59H24.85C25.0887 59 25.3176 58.9052 25.4864 58.7364C25.6552 58.5676 25.75 58.3387 25.75 58.1V57.1838C26.4043 57.2 27.1486 57.2 28 57.2C28.8514 57.2 29.5957 57.2 30.25 57.1838V58.1C30.25 58.3387 30.3448 58.5676 30.5136 58.7364C30.6824 58.9052 30.9113 59 31.15 59H32.5C32.7387 59 32.9676 58.9052 33.1364 58.7364C33.3052 58.5676 33.4 58.3387 33.4 58.1V56.6735C33.6766 56.541 33.9286 56.3623 34.1452 56.1452C35.1028 55.1885 35.1919 51.7629 35.2 48.9603H36.55C36.6618 48.8764 36.8425 47.6877 36.905 47.5628C36.9675 47.4378 37 47.3 37 47.1603V46.2603C37 46.0216 36.9052 45.7927 36.7364 45.6239C36.5676 45.4551 36.3387 45.3603 36.1 45.3603H35.2C35.191 42.5577 35.1028 43.0115 34.1452 42.0548C33.0913 41 31.3939 41 28 41ZM22.15 47.75C22.15 49.0226 22.15 49.6589 22.546 50.054C22.9411 50.45 23.5774 50.45 24.85 50.45H31.15C32.4226 50.45 33.0589 50.45 33.454 50.054C33.85 49.6589 33.85 49.0226 33.85 47.75V45.5C33.85 44.2274 33.85 43.5911 33.454 43.196C33.0598 42.8 32.4235 42.8 31.15 42.8H24.85C23.5774 42.8 22.9411 42.8 22.546 43.196C22.15 43.5902 22.15 44.2265 22.15 45.5V47.75ZM22.825 53.6C22.825 53.421 22.8961 53.2493 23.0227 53.1227C23.1493 52.9961 23.321 52.925 23.5 52.925H24.85C25.029 52.925 25.2007 52.9961 25.3273 53.1227C25.4539 53.2493 25.525 53.421 25.525 53.6C25.525 53.779 25.4539 53.9507 25.3273 54.0773C25.2007 54.2039 25.029 54.275 24.85 54.275H23.5C23.321 54.275 23.1493 54.2039 23.0227 54.0773C22.8961 53.9507 22.825 53.779 22.825 53.6ZM33.175 53.6C33.175 53.421 33.1039 53.2493 32.9773 53.1227C32.8507 52.9961 32.679 52.925 32.5 52.925H31.15C30.971 52.925 30.7993 52.9961 30.6727 53.1227C30.5461 53.2493 30.475 53.421 30.475 53.6C30.475 53.779 30.5461 53.9507 30.6727 54.0773C30.7993 54.2039 30.971 54.275 31.15 54.275H32.5C32.679 54.275 32.8507 54.2039 32.9773 54.0773C33.1039 53.9507 33.175 53.779 33.175 53.6Z" fill="white"/>
</g>
<defs>
<filter id="filter0_d_3761_22419" x="0" y="24" width="56" height="56" filterUnits="userSpaceOnUse" color-interpolation-filters="sRGB">
<feFlood flood-opacity="0" result="BackgroundImageFix"/>
<feColorMatrix in="SourceAlpha" type="matrix" values="0 0 0 0 0 0 0 0 0 0 0 0 0 0 0 0 0 0 127 0" result="hardAlpha"/>
<feOffset dy="2"/>
<feGaussianBlur stdDeviation="6"/>
<feComposite in2="hardAlpha" operator="out"/>
<feColorMatrix type="matrix" values="0 0 0 0 0.0313726 0 0 0 0 0.054902 0 0 0 0 0.0705882 0 0 0 0.25 0"/>
<feBlend mode="normal" in2="BackgroundImageFix" result="effect1_dropShadow_3761_22419"/>
<feBlend mode="normal" in="SourceGraphic" in2="effect1_dropShadow_3761_22419" result="shape"/>
</filter>
<linearGradient id="paint0_linear_3761_22419" x1="39.5" y1="10" x2="29.5424" y2="49.9362" gradientUnits="userSpaceOnUse">
<stop stop-color="#1083C5" stop-opacity="0"/>
<stop offset="0.288462" stop-color="#1083C5" stop-opacity="0.168639"/>
<stop offset="0.653846" stop-color="#1083C5" stop-opacity="0.645894"/>
<stop offset="1" stop-color="#1083C5"/>
</linearGradient>
</defs>
</svg>
